<?xml version="1.0" encoding="UTF-8" standalone="no"?>
<!-- Created with Inkscape (http://www.inkscape.org/) -->

<svg
    width="55"
    height="70"
    viewBox="0 0 56.09314 68.403046"
    version="1.1"
    id="svg1"
    inkscape:version="1.3.2 (091e20e, 2023-11-25, custom)"
    sodipodi:docname="drawing.svg"
    xmlns:inkscape="http://www.inkscape.org/namespaces/inkscape"
    xmlns:sodipodi="http://sodipodi.sourceforge.net/DTD/sodipodi-0.dtd"
    xmlns="http://www.w3.org/2000/svg"
    xmlns:svg="http://www.w3.org/2000/svg">
    <sodipodi:namedview
        id="namedview1"
        pagecolor="#ffffff"
        bordercolor="#000000"
        borderopacity="0.25"
        inkscape:showpageshadow="2"
        inkscape:pageopacity="0.0"
        inkscape:pagecheckerboard="0"
        inkscape:deskcolor="#d1d1d1"
        inkscape:document-units="mm"
        inkscape:zoom="1.0520974"
        inkscape:cx="396.82639"
        inkscape:cy="561.25984"
        inkscape:window-width="5120"
        inkscape:window-height="1377"
        inkscape:window-x="-8"
        inkscape:window-y="-8"
        inkscape:window-maximized="1"
        inkscape:current-layer="layer1" />
    <defs
        id="defs1">
        <clipPath
            id="f158151e0e">
            <path
                d="m 313,334 h 68 v 62 h -68 z m 0,0"
                clip-rule="nonzero"
                id="path30" />
        </clipPath>
        <clipPath
            id="28ac9c4fb5">
            <path
                d="m 203.68359,317.86719 v 243.8164 c 0,0.82813 0.67188,1.5 1.5,1.5 h 201.63282 c 0.82812,0 1.5,-0.67187 1.5,-1.5 v -243.8164 c 0,-0.82813 -0.67188,-1.5 -1.5,-1.5 H 205.18359 c -0.82812,0 -1.5,0.67187 -1.5,1.5 z m 0,0"
                clip-rule="nonzero"
                id="path31" />
        </clipPath>
        <clipPath
            id="681b92b165">
            <path
                d="m 203.68359,317.86719 v 243.8164 c 0,0.82813 0.67188,1.5 1.5,1.5 h 201.63282 c 0.82812,0 1.5,-0.67187 1.5,-1.5 v -243.8164 c 0,-0.82813 -0.67188,-1.5 -1.5,-1.5 H 205.18359 c -0.82812,0 -1.5,0.67187 -1.5,1.5 z m 0,0"
                clip-rule="nonzero"
                id="path1" />
        </clipPath>
        <clipPath
            id="3c03e65346">
            <path
                d="m 253,316.36719 h 16 V 332 h -16 z m 0,0"
                clip-rule="nonzero"
                id="path24" />
        </clipPath>
        <clipPath
            id="61fccc2c4e">
            <path
                d="m 203.68359,317.86719 v 243.8164 c 0,0.82813 0.67188,1.5 1.5,1.5 h 201.63282 c 0.82812,0 1.5,-0.67187 1.5,-1.5 v -243.8164 c 0,-0.82813 -0.67188,-1.5 -1.5,-1.5 H 205.18359 c -0.82812,0 -1.5,0.67187 -1.5,1.5 z m 0,0"
                clip-rule="nonzero"
                id="path25" />
        </clipPath>
        <clipPath
            id="4848d2e8e4">
            <path
                d="m 230,327 h 23 v 24 h -23 z m 0,0"
                clip-rule="nonzero"
                id="path20" />
        </clipPath>
        <clipPath
            id="664cc76023">
            <path
                d="m 203.68359,317.86719 v 243.8164 c 0,0.82813 0.67188,1.5 1.5,1.5 h 201.63282 c 0.82812,0 1.5,-0.67187 1.5,-1.5 v -243.8164 c 0,-0.82813 -0.67188,-1.5 -1.5,-1.5 H 205.18359 c -0.82812,0 -1.5,0.67187 -1.5,1.5 z m 0,0"
                clip-rule="nonzero"
                id="path21" />
        </clipPath>
        <clipPath
            id="960f146a1a">
            <path
                d="m 209,336 h 12 v 12 h -12 z m 0,0"
                clip-rule="nonzero"
                id="path26" />
        </clipPath>
        <clipPath
            id="30442d4a70">
            <path
                d="m 203.68359,317.86719 v 243.8164 c 0,0.82813 0.67188,1.5 1.5,1.5 h 201.63282 c 0.82812,0 1.5,-0.67187 1.5,-1.5 v -243.8164 c 0,-0.82813 -0.67188,-1.5 -1.5,-1.5 H 205.18359 c -0.82812,0 -1.5,0.67187 -1.5,1.5 z m 0,0"
                clip-rule="nonzero"
                id="path27" />
        </clipPath>
        <clipPath
            id="1d53751798">
            <path
                d="m 237,363 h 16 v 16 h -16 z m 0,0"
                clip-rule="nonzero"
                id="path22" />
        </clipPath>
        <clipPath
            id="1989d77036">
            <path
                d="m 203.68359,317.86719 v 243.8164 c 0,0.82813 0.67188,1.5 1.5,1.5 h 201.63282 c 0.82812,0 1.5,-0.67187 1.5,-1.5 v -243.8164 c 0,-0.82813 -0.67188,-1.5 -1.5,-1.5 H 205.18359 c -0.82812,0 -1.5,0.67187 -1.5,1.5 z m 0,0"
                clip-rule="nonzero"
                id="path23" />
        </clipPath>
        <clipPath
            id="f369a12f22">
            <path
                d="M 203.68359,360 H 229 v 25 h -25.31641 z m 0,0"
                clip-rule="nonzero"
                id="path18" />
        </clipPath>
        <clipPath
            id="50ced8424d">
            <path
                d="m 203.68359,317.86719 v 243.8164 c 0,0.82813 0.67188,1.5 1.5,1.5 h 201.63282 c 0.82812,0 1.5,-0.67187 1.5,-1.5 v -243.8164 c 0,-0.82813 -0.67188,-1.5 -1.5,-1.5 H 205.18359 c -0.82812,0 -1.5,0.67187 -1.5,1.5 z m 0,0"
                clip-rule="nonzero"
                id="path19" />
        </clipPath>
        <clipPath
            id="592212ee8f">
            <path
                d="m 221,393 h 28 v 28 h -28 z m 0,0"
                clip-rule="nonzero"
                id="path16" />
        </clipPath>
        <clipPath
            id="a063a62a40">
            <path
                d="m 203.68359,317.86719 v 243.8164 c 0,0.82813 0.67188,1.5 1.5,1.5 h 201.63282 c 0.82812,0 1.5,-0.67187 1.5,-1.5 v -243.8164 c 0,-0.82813 -0.67188,-1.5 -1.5,-1.5 H 205.18359 c -0.82812,0 -1.5,0.67187 -1.5,1.5 z m 0,0"
                clip-rule="nonzero"
                id="path17" />
        </clipPath>
        <clipPath
            id="6f22633a35">
            <path
                d="m 254,358 h 95 v 94 h -95 z m 0,0"
                clip-rule="nonzero"
                id="path28" />
        </clipPath>
        <clipPath
            id="b2061c012b">
            <path
                d="m 203.68359,317.86719 v 243.8164 c 0,0.82813 0.67188,1.5 1.5,1.5 h 201.63282 c 0.82812,0 1.5,-0.67187 1.5,-1.5 v -243.8164 c 0,-0.82813 -0.67188,-1.5 -1.5,-1.5 H 205.18359 c -0.82812,0 -1.5,0.67187 -1.5,1.5 z m 0,0"
                clip-rule="nonzero"
                id="path29" />
        </clipPath>
        <clipPath
            id="88377172e6">
            <path
                d="m 332,360 h 63 v 83 h -63 z m 0,0"
                clip-rule="nonzero"
                id="path2" />
        </clipPath>
        <clipPath
            id="1dc6512afb">
            <path
                d="m 203.68359,317.86719 v 243.8164 c 0,0.82813 0.67188,1.5 1.5,1.5 h 201.63282 c 0.82812,0 1.5,-0.67187 1.5,-1.5 v -243.8164 c 0,-0.82813 -0.67188,-1.5 -1.5,-1.5 H 205.18359 c -0.82812,0 -1.5,0.67187 -1.5,1.5 z m 0,0"
                clip-rule="nonzero"
                id="path3" />
        </clipPath>
        <clipPath
            id="66bfc4b2ec">
            <path
                d="m 261,460 h 37 v 37 h -37 z m 0,0"
                clip-rule="nonzero"
                id="path14" />
        </clipPath>
        <clipPath
            id="113dcec9dc">
            <path
                d="m 203.68359,317.86719 v 243.8164 c 0,0.82813 0.67188,1.5 1.5,1.5 h 201.63282 c 0.82812,0 1.5,-0.67187 1.5,-1.5 v -243.8164 c 0,-0.82813 -0.67188,-1.5 -1.5,-1.5 H 205.18359 c -0.82812,0 -1.5,0.67187 -1.5,1.5 z m 0,0"
                clip-rule="nonzero"
                id="path15" />
        </clipPath>
        <clipPath
            id="277f958ad7">
            <path
                d="m 279,505 h 68 v 58.11719 h -68 z m 0,0"
                clip-rule="nonzero"
                id="path8" />
        </clipPath>
        <clipPath
            id="bc61fcf6dc">
            <path
                d="m 203.68359,317.86719 v 243.8164 c 0,0.82813 0.67188,1.5 1.5,1.5 h 201.63282 c 0.82812,0 1.5,-0.67187 1.5,-1.5 v -243.8164 c 0,-0.82813 -0.67188,-1.5 -1.5,-1.5 H 205.18359 c -0.82812,0 -1.5,0.67187 -1.5,1.5 z m 0,0"
                clip-rule="nonzero"
                id="path9" />
        </clipPath>
        <clipPath
            id="15d670b2cd">
            <path
                d="M 269,453 H 381 V 563.11719 H 269 Z m 0,0"
                clip-rule="nonzero"
                id="path6" />
        </clipPath>
        <clipPath
            id="3fa8817e86">
            <path
                d="m 203.68359,317.86719 v 243.8164 c 0,0.82813 0.67188,1.5 1.5,1.5 h 201.63282 c 0.82812,0 1.5,-0.67187 1.5,-1.5 v -243.8164 c 0,-0.82813 -0.67188,-1.5 -1.5,-1.5 H 205.18359 c -0.82812,0 -1.5,0.67187 -1.5,1.5 z m 0,0"
                clip-rule="nonzero"
                id="path7" />
        </clipPath>
        <clipPath
            id="c5be76d7cf">
            <path
                d="m 335,466 h 65 v 61 h -65 z m 0,0"
                clip-rule="nonzero"
                id="path10" />
        </clipPath>
        <clipPath
            id="3e394ceee6">
            <path
                d="m 203.68359,317.86719 v 243.8164 c 0,0.82813 0.67188,1.5 1.5,1.5 h 201.63282 c 0.82812,0 1.5,-0.67187 1.5,-1.5 v -243.8164 c 0,-0.82813 -0.67188,-1.5 -1.5,-1.5 H 205.18359 c -0.82812,0 -1.5,0.67187 -1.5,1.5 z m 0,0"
                clip-rule="nonzero"
                id="path11" />
        </clipPath>
        <clipPath
            id="1e54e92698">
            <path
                d="m 218,429 h 40 v 41 h -40 z m 0,0"
                clip-rule="nonzero"
                id="path12" />
        </clipPath>
        <clipPath
            id="0aac0899a6">
            <path
                d="m 203.68359,317.86719 v 243.8164 c 0,0.82813 0.67188,1.5 1.5,1.5 h 201.63282 c 0.82812,0 1.5,-0.67187 1.5,-1.5 v -243.8164 c 0,-0.82813 -0.67188,-1.5 -1.5,-1.5 H 205.18359 c -0.82812,0 -1.5,0.67187 -1.5,1.5 z m 0,0"
                clip-rule="nonzero"
                id="path13" />
        </clipPath>
        <clipPath
            id="438977eff9">
            <path
                d="M 301,387 H 408.43359 V 502 H 301 Z m 0,0"
                clip-rule="nonzero"
                id="path4" />
        </clipPath>
        <clipPath
            id="e1e1b5f0f3">
            <path
                d="m 203.68359,317.86719 v 243.8164 c 0,0.82813 0.67188,1.5 1.5,1.5 h 201.63282 c 0.82812,0 1.5,-0.67187 1.5,-1.5 v -243.8164 c 0,-0.82813 -0.67188,-1.5 -1.5,-1.5 H 205.18359 c -0.82812,0 -1.5,0.67187 -1.5,1.5 z m 0,0"
                clip-rule="nonzero"
                id="path5" />
        </clipPath>
    </defs>
    <g
        inkscape:label="Layer 1"
        inkscape:groupmode="layer"
        id="layer1">
        <g
            clip-path="url(#d869e93814)"
            id="g37"
            transform="matrix(0.26458333,0,0,0.26458333,-52.823362,-82.360455)">
            <g
                clip-path="url(#681b92b165)"
                id="g36">
                <path
                    fill="#f9ed32"
                    d="m 311.17578,350.39453 c 0.88281,0 1.75391,-0.0859 2.61328,-0.25781 0.86328,-0.17188 1.70313,-0.42578 2.51563,-0.76172 0.8125,-0.33594 1.58203,-0.75 2.3164,-1.23828 0.73047,-0.48438 1.40625,-1.03906 2.02735,-1.66016 0.625,-0.625 1.17968,-1.30078 1.66797,-2.03125 0.48828,-0.73047 0.90234,-1.5 1.23828,-2.3125 0.33593,-0.8125 0.59375,-1.64844 0.76562,-2.50781 0.17188,-0.86328 0.25781,-1.73438 0.25781,-2.61328 0,-0.87891 -0.0859,-1.7461 -0.25781,-2.60938 -0.16797,-0.86328 -0.42187,-1.69922 -0.75781,-2.51172 -0.33594,-0.8125 -0.75,-1.58203 -1.23828,-2.3164 -0.48438,-0.73047 -1.03906,-1.40625 -1.66406,-2.02735 -0.6211,-0.62109 -1.29688,-1.17968 -2.02735,-1.66796 -0.73047,-0.48829 -1.5,-0.90235 -2.3125,-1.23829 -0.8125,-0.33593 -1.65234,-0.59375 -2.51172,-0.76562 -0.86328,-0.17188 -1.73437,-0.25781 -2.61328,-0.25781 -0.8789,-0.004 -1.75,0.082 -2.61328,0.2539 -0.86328,0.16797 -1.70312,0.42188 -2.51562,0.75782 -0.8125,0.33203 -1.58594,0.74609 -2.31641,1.23046 -0.73047,0.48829 -1.41016,1.04297 -2.03125,1.66407 -0.625,0.61718 -1.17969,1.29297 -1.67188,2.02343 -0.48828,0.73047 -0.90234,1.5 -1.24218,2.3125 -0.33594,0.8125 -0.59375,1.64844 -0.76563,2.50782 -0.17187,0.86328 -0.26172,1.73437 -0.26172,2.61328 0,0.8789 0.0859,1.75 0.25782,2.61328 0.17187,0.86328 0.42578,1.69922 0.76171,2.51172 0.33594,0.8125 0.75,1.58594 1.23829,2.3164 0.48828,0.73438 1.04296,1.41016 1.66406,2.03125 0.625,0.625 1.30078,1.17969 2.03125,1.67188 0.73047,0.48828 1.5039,0.90234 2.3164,1.23828 0.8125,0.33984 1.65235,0.59375 2.51563,0.76953 0.86328,0.17188 1.73437,0.25781 2.61328,0.26172 z m 0,0"
                    fill-opacity="0.78"
                    fill-rule="evenodd"
                    id="path35" />
            </g>
        </g>
        <g
            clip-path="url(#88377172e6)"
            id="g39"
            transform="matrix(0.26458333,0,0,0.26458333,-52.823362,-82.360455)">
            <g
                clip-path="url(#1dc6512afb)"
                id="g38">
                <path
                    fill="#662d91"
                    d="m 376.08984,360.71484 c 3.64063,4.21875 6.65235,8.84766 9.03125,13.88282 2.37891,5.03906 4.04297,10.30078 4.98828,15.78906 2.71485,15.87109 -1.42578,30.5664 1.47657,40.4414 0.68359,2.21485 1.59375,4.32813 2.73437,6.34766 -0.67969,0.39453 -1.36719,0.76953 -2.0664,1.125 -0.70313,0.35547 -1.41016,0.69141 -2.13282,1.00391 -0.71875,0.3164 -1.44531,0.60937 -2.18359,0.88281 -0.73438,0.27344 -1.48047,0.52344 -2.23047,0.75391 -0.75,0.23046 -1.50781,0.4375 -2.26953,0.625 -0.76563,0.1875 -1.53125,0.35156 -2.30469,0.49609 -0.77344,0.14062 -1.54687,0.26172 -2.32812,0.36328 -0.77735,0.0977 -1.5586,0.17188 -2.34375,0.22656 -0.78516,0.0547 -1.56641,0.0859 -2.35157,0.0937 -0.78906,0.008 -1.57421,-0.004 -2.35546,-0.043 -0.78516,-0.0351 -1.57032,-0.0937 -2.35157,-0.17578 -0.78125,-0.082 -1.55859,-0.18359 -2.33593,-0.30859 -0.77344,-0.125 -1.54297,-0.27344 -2.3125,-0.44531 -0.76563,-0.16797 -1.52735,-0.35938 -2.28516,-0.57422 -0.75391,-0.21485 -1.50391,-0.44922 -2.24609,-0.70313 -0.74219,-0.25781 -1.47657,-0.53515 -2.20313,-0.83593 -0.72656,-0.29688 -1.44141,-0.61719 -2.15234,-0.95704 -0.70703,-0.33984 -1.40625,-0.69921 -2.09375,-1.07812 -0.6875,-0.37891 -1.36328,-0.77734 -2.02735,-1.19531 -0.66406,-0.42188 -1.3164,-0.85547 -1.95703,-1.3125 -0.63672,-0.45703 -1.26562,-0.92969 -1.875,-1.42188 -0.61328,-0.49219 -1.21094,-1 -1.79297,-1.52734 -0.58593,-0.52344 -1.15234,-1.06641 -1.70312,-1.625 -0.55078,-0.5586 -1.08985,-1.13281 -1.60547,-1.72266 -0.51953,-0.58594 -1.02344,-1.1914 -1.50781,-1.80859 -0.48438,-0.61719 -0.94922,-1.25 -1.39844,-1.89453 -0.44922,-0.64453 -0.875,-1.30078 -1.28906,-1.96875 -0.41016,-0.67188 -0.80078,-1.35157 -1.17188,-2.04297 -0.37109,-0.69141 -0.72265,-1.39453 -1.05469,-2.10547 -0.32812,-0.71094 -0.64062,-1.42969 -0.92968,-2.16016 -0.28907,-0.73047 -0.5586,-1.46875 -0.80469,-2.21093 -0.25,-0.7461 -0.47266,-1.4961 -0.67969,-2.25391 -0.20312,-0.75781 -0.38672,-1.52344 -0.54687,-2.28906 -0.16016,-0.76953 -0.29688,-1.54297 -0.41407,-2.32032 -0.11718,-0.77343 -0.21093,-1.55468 -0.28125,-2.33593 -0.0703,-0.78125 -0.12109,-1.5625 -0.14843,-2.34766 -0.0234,-0.78516 -0.0274,-1.57031 -0.0117,-2.35547 0.0195,-0.78125 0.0625,-1.5664 0.125,-2.34765 0.0625,-0.78125 0.14844,-1.5625 0.25781,-2.33985 0.10938,-0.77734 0.23828,-1.55078 0.39063,-2.32031 0.15234,-0.76953 0.32812,-1.53516 0.52343,-2.29688 0.19922,-0.75781 0.41407,-1.51171 0.65625,-2.25781 0.23828,-0.75 0.5,-1.48828 0.78125,-2.22265 0.28516,-0.73047 0.58594,-1.45313 0.91016,-2.16797 0.32422,-0.71485 0.66797,-1.42188 1.03125,-2.11719 0.36719,-0.69531 0.75,-1.37891 1.15234,-2.05469 0.40625,-0.67187 0.82813,-1.33203 1.26953,-1.98047 0.44141,-0.64843 0.90235,-1.28515 1.37891,-1.91015 0.47656,-0.6211 0.97266,-1.23047 1.48828,-1.82422 0.51172,-0.59375 1.04297,-1.17188 1.58594,-1.73828 0.54687,-0.5625 1.10937,-1.10938 1.6875,-1.64453 0.57812,-0.53125 1.17187,-1.04297 1.77734,-1.54297 0.60938,-0.4961 1.23047,-0.97657 1.86328,-1.44141 0.63672,-0.46094 1.28125,-0.90234 1.94141,-1.32812 0.66406,-0.42579 1.33594,-0.83204 2.01953,-1.21875 0.6836,-0.38672 1.375,-0.75391 2.08203,-1.10157 0.70313,-0.34375 1.41797,-0.67187 2.14063,-0.97656 0.72265,-0.30859 1.45312,-0.59375 2.19531,-0.85547 0.73828,-0.26562 1.48438,-0.50781 2.23828,-0.72656 0.75391,-0.22266 1.51563,-0.42188 2.28125,-0.60156 0.76172,-0.17578 1.53125,-0.33203 2.3086,-0.46485 0.77343,-0.13281 1.55078,-0.24609 2.33203,-0.33593 0.77734,-0.0859 1.5625,-0.15235 2.34375,-0.19922 0.78515,-0.043 1.57031,-0.0664 2.35547,-0.0625 0.77343,0 1.58984,0.0234 2.39843,0.0664 z m 0,0"
                    fill-opacity="0.78"
                    fill-rule="evenodd"
                    id="path37" />
            </g>
        </g>
        <g
            clip-path="url(#438977eff9)"
            id="g41"
            transform="matrix(0.26458333,0,0,0.26458333,-52.823362,-82.360455)">
            <g
                clip-path="url(#e1e1b5f0f3)"
                id="g40">
                <path
                    fill="#92278f"
                    d="m 390.91016,397.37109 c 0.85937,13.14453 -1.79688,25.05078 0.67578,33.49219 4.23828,14.41797 23.01953,27.48047 14.24609,34.90234 -2.77734,2.22266 -7.55859,2.36719 -10.35937,4.55079 -4.46094,3.47656 -1.41016,7.23828 -1.01563,9.95312 0.19141,1.28906 -0.97656,3.35938 -4.83594,5.875 2.91407,2.14453 2.64453,3.96484 1.60547,5.64063 -1.42187,0.97265 -2.88281,1.8789 -4.38281,2.71875 -1.50391,0.84375 -3.03906,1.61328 -4.61328,2.3164 -1.57031,0.70313 -3.17188,1.33203 -4.80078,1.88672 -1.62891,0.55859 -3.27735,1.04297 -4.95313,1.44922 -1.67187,0.41016 -3.35937,0.74219 -5.0625,0.99609 -1.70312,0.25782 -3.41406,0.4336 -5.13281,0.53516 -1.71875,0.10156 -3.4375,0.125 -5.16016,0.0703 -1.71875,-0.0547 -3.43359,-0.18359 -5.14453,-0.39453 -1.70703,-0.20703 -3.40625,-0.49219 -5.08594,-0.85547 -1.68359,-0.36328 -3.34765,-0.80078 -4.99218,-1.3125 -1.64453,-0.51172 -3.26172,-1.09765 -4.85157,-1.75781 -1.58984,-0.66016 -3.14843,-1.38672 -4.67187,-2.1875 -1.52734,-0.79688 -3.01172,-1.66406 -4.45703,-2.59766 -1.44531,-0.93359 -2.84766,-1.92968 -4.20313,-2.99218 -1.35547,-1.0586 -2.66015,-2.17969 -3.91797,-3.35547 -1.2539,-1.17969 -2.45312,-2.41016 -3.59765,-3.69922 -1.14063,-1.28516 -2.22656,-2.6211 -3.2461,-4.00391 -1.02343,-1.38281 -1.98046,-2.8125 -2.875,-4.28125 -0.89453,-1.47265 -1.71875,-2.98047 -2.47656,-4.52344 -0.7539,-1.54687 -1.4414,-3.125 -2.05469,-4.73046 -0.61328,-1.60547 -1.15625,-3.23829 -1.62109,-4.89454 -0.46875,-1.65625 -0.85937,-3.32812 -1.17187,-5.01953 -0.31641,-1.6914 -0.55469,-3.39453 -0.71485,-5.10937 -0.16015,-1.71094 -0.24609,-3.42578 -0.25,-5.14844 -0.008,-1.71875 0.0664,-3.4375 0.21485,-5.15234 0.14843,-1.71094 0.375,-3.41407 0.67968,-5.10938 0.30469,-1.6914 0.6836,-3.37109 1.13672,-5.02734 0.45703,-1.66016 0.98828,-3.29688 1.58985,-4.90625 0.60546,-1.61328 1.27734,-3.19141 2.02343,-4.74219 0.7461,-1.55078 1.5625,-3.06641 2.44532,-4.54297 0.88281,-1.47656 1.83203,-2.91015 2.84765,-4.30078 1.01172,-1.39062 2.08594,-2.73437 3.21875,-4.02734 1.13672,-1.29297 2.32813,-2.53516 3.57422,-3.71875 1.24609,-1.1875 2.54297,-2.31641 3.89453,-3.38282 1.34766,-1.07031 2.74219,-2.07812 4.17969,-3.01953 1.44141,-0.94531 2.92187,-1.82031 4.44141,-2.6289 1.51953,-0.8125 3.07031,-1.55078 4.65625,-2.21875 1.58593,-0.67188 3.19921,-1.26563 4.83984,-1.78907 1.64062,-0.52343 3.30078,-0.97265 4.98047,-1.34765 1.68359,-0.375 3.375,-0.67188 5.08594,-0.89063 1.70703,-0.22265 3.41796,-0.36328 5.14062,-0.42968 1.71875,-0.0664 3.44141,-0.0547 5.16016,0.0351 1.71875,0.0899 3.42968,0.25781 5.13672,0.5 1.70312,0.2461 3.39453,0.56641 5.07031,0.96485 1.67187,0.39453 3.32812,0.86718 4.96094,1.41406 1.63281,0.54687 3.23828,1.16406 4.8125,1.85547 1.57812,0.6914 3.12109,1.45312 4.6289,2.28515 1.50781,0.82813 2.97266,1.72657 4.40235,2.6875 z m 0,0"
                    fill-opacity="0.78"
                    fill-rule="evenodd"
                    id="path39" />
            </g>
        </g>
        <g
            clip-path="url(#15d670b2cd)"
            id="g43"
            transform="matrix(0.26458333,0,0,0.26458333,-52.823362,-82.360455)">
            <g
                clip-path="url(#3fa8817e86)"
                id="g42">
                <path
                    fill="#007fc6"
                    d="m 378.67578,523.50781 c -21.70312,8.83203 -50.75391,-20.78125 -54.66406,39.60938 -14.11328,-9.25782 -29.06641,-16.85938 -44.85938,-22.8086 -0.65234,-0.95703 -1.27343,-1.93359 -1.86328,-2.92578 -0.58984,-0.99609 -1.14844,-2.00781 -1.67187,-3.03906 -0.52735,-1.03125 -1.01953,-2.07422 -1.48047,-3.13672 -0.46094,-1.05859 -0.89063,-2.13281 -1.28516,-3.22266 -0.39062,-1.08593 -0.75,-2.18359 -1.07422,-3.29296 -0.32812,-1.11329 -0.61718,-2.23047 -0.87109,-3.35938 -0.25391,-1.125 -0.47656,-2.26172 -0.66016,-3.40234 -0.18359,-1.14453 -0.33203,-2.28907 -0.4414,-3.44141 -0.11328,-1.14844 -0.1875,-2.30078 -0.23047,-3.45703 -0.0391,-1.15625 -0.043,-2.3125 -0.008,-3.46875 0.0312,-1.15625 0.0976,-2.30859 0.20312,-3.46094 0.10547,-1.15234 0.24609,-2.30078 0.42188,-3.4414 0.17578,-1.14454 0.39062,-2.28125 0.63671,-3.41016 0.2461,-1.12891 0.53125,-2.25 0.84766,-3.35938 0.31641,-1.11328 0.67188,-2.21484 1.05859,-3.30468 0.38672,-1.08985 0.80469,-2.16797 1.25782,-3.23047 0.45703,-1.0625 0.9414,-2.11328 1.46093,-3.14453 0.51954,-1.03516 1.07032,-2.05078 1.65625,-3.04688 0.58204,-1 1.19532,-1.98047 1.83985,-2.9414 0.64453,-0.96094 1.32031,-1.89844 2.02344,-2.81641 0.70312,-0.91797 1.43359,-1.8125 2.19531,-2.6875 0.75781,-0.87109 1.54297,-1.71875 2.35547,-2.54297 0.8125,-0.82422 1.65234,-1.62109 2.51172,-2.39062 0.86328,-0.77344 1.75,-1.51563 2.66015,-2.23047 0.90625,-0.71875 1.83985,-1.40235 2.78906,-2.0625 0.95313,-0.65625 1.92579,-1.28516 2.91407,-1.88282 0.99218,-0.59375 2,-1.16015 3.02734,-1.69531 1.02734,-0.53515 2.07031,-1.03515 3.12891,-1.5039 1.05859,-0.46875 2.1289,-0.90235 3.21484,-1.30469 1.08203,-0.40235 2.17969,-0.76953 3.28906,-1.10547 1.10938,-0.33203 2.22657,-0.62891 3.35157,-0.89453 1.1289,-0.26172 2.26171,-0.48828 3.40234,-0.6836 1.14062,-0.1914 2.28906,-0.34765 3.4375,-0.46875 1.15234,-0.12109 2.30469,-0.20703 3.46094,-0.2539 1.15625,-0.0508 2.3164,-0.0625 3.47265,-0.0391 1.15625,0.0234 2.3125,0.082 3.46485,0.17578 1.15234,0.0976 2.30078,0.23047 3.44922,0.39453 1.14453,0.16797 2.28125,0.37109 3.41406,0.60937 1.13281,0.23828 2.25781,0.51172 3.37109,0.82032 1.11719,0.30859 2.22266,0.65234 3.31641,1.03125 1.09375,0.3789 2.17187,0.78906 3.24219,1.23437 1.0664,0.44531 2.12109,0.92188 3.16015,1.43359 1.03516,0.51172 2.0586,1.05469 3.0625,1.62891 1.00391,0.57813 1.98828,1.18359 2.95703,1.82031 0.96485,0.63282 1.91016,1.30078 2.83594,1.9961 0.92188,0.69531 1.82422,1.41797 2.70313,2.17187 0.8789,0.75 1.73437,1.53125 2.5664,2.33594 0.83203,0.80469 1.63281,1.63672 2.41406,2.49219 0.77735,0.85547 1.52735,1.73437 2.25391,2.63672 0.72266,0.90234 1.41797,1.82421 2.08203,2.77343 0.66406,0.94532 1.30078,1.91016 1.90625,2.89453 0.60547,0.98829 1.17969,1.99219 1.72266,3.01172 0.54297,1.02344 1.05078,2.0586 1.52734,3.11328 0.48047,1.05079 0.92188,2.1211 1.33203,3.19922 0.41016,1.08203 0.78907,2.17578 1.12891,3.28125 0.34375,1.10547 0.65234,2.21875 0.92578,3.34375 0.26953,1.1211 0.50781,2.25391 0.71094,3.39063 0.19922,1.14062 0.36719,2.28515 0.49609,3.43359 0.12891,1.14844 0.22266,2.30078 0.28125,3.45313 0.0586,1.15625 0.082,2.3125 0.0664,3.46875 -0.0156,1.15625 -0.0664,2.3125 -0.15235,3.46484 -0.0859,1.15234 -0.20703,2.30078 -0.36718,3.44531 -0.15625,1.14844 -0.35157,2.28516 -0.58203,3.41797 -0.23047,1.13672 -0.4961,2.26172 -0.79688,3.375 z m 0,0"
                    fill-opacity="0.78"
                    fill-rule="evenodd"
                    id="path41" />
            </g>
        </g>
        <g
            clip-path="url(#277f958ad7)"
            id="g45"
            transform="matrix(0.26458333,0,0,0.26458333,-52.823362,-82.360455)">
            <g
                clip-path="url(#bc61fcf6dc)"
                id="g44">
                <path
                    fill="#01a6e6"
                    d="m 346.8125,523.82031 c -11.46484,0.48047 -20.71484,7.07422 -22.80078,39.29688 -14.03125,-9.20313 -28.89844,-16.77344 -44.59375,-22.71485 0.0469,-1.95703 0.25,-3.89843 0.61719,-5.82422 0.36328,-1.92578 0.88281,-3.80859 1.55468,-5.64843 0.67188,-1.83985 1.49219,-3.61328 2.45313,-5.32032 0.96484,-1.70703 2.05859,-3.32031 3.28515,-4.84765 1.23047,-1.52735 2.57032,-2.94531 4.03125,-4.25391 1.46094,-1.30859 3.01563,-2.48828 4.66797,-3.54297 1.65625,-1.05468 3.38282,-1.96484 5.1836,-2.73828 1.80468,-0.76953 3.65625,-1.39062 5.55859,-1.85937 1.90625,-0.46875 3.83594,-0.77735 5.78906,-0.92969 1.95313,-0.15625 3.91016,-0.14844 5.86328,0.0195 1.95313,0.16406 3.87891,0.48828 5.78125,0.96875 1.89844,0.48047 3.75,1.11328 5.54688,1.89844 1.79687,0.78125 3.51562,1.70703 5.16406,2.76953 1.64453,1.06641 3.19141,2.25391 4.64453,3.57422 1.44922,1.3164 2.78516,2.74219 4.00391,4.27734 1.21484,1.53516 2.30078,3.16016 3.25,4.875 z m 0,0"
                    fill-opacity="0.78"
                    fill-rule="evenodd"
                    id="path43" />
            </g>
        </g>
        <g
            clip-path="url(#c5be76d7cf)"
            id="g47"
            transform="matrix(0.26458333,0,0,0.26458333,-52.823362,-82.360455)">
            <g
                clip-path="url(#3e394ceee6)"
                id="g46">
                <path
                    fill="#2063b2"
                    d="m 399.25391,468.46875 c -1.35938,0.39453 -2.6211,1 -3.78125,1.8125 -4.46094,3.47656 -1.41016,7.23828 -1.01563,9.95312 0.19141,1.28907 -0.97656,3.35938 -4.83594,5.875 4.46094,3.28907 1.46094,5.80469 -0.33593,8.22657 -8.34766,6.01172 3.26562,19.03906 -10.50391,29.14062 -13.89844,5.71875 -30.79688,-4.37109 -42.21094,3.375 -0.18359,-1.04297 -0.33203,-2.08984 -0.44922,-3.14062 -0.11328,-1.05078 -0.19922,-2.10547 -0.24609,-3.16016 -0.0508,-1.05859 -0.0703,-2.11328 -0.0547,-3.17187 0.0156,-1.0586 0.0625,-2.11329 0.14453,-3.16797 0.0781,-1.05469 0.19141,-2.10547 0.33985,-3.15235 0.14453,-1.04687 0.32031,-2.08984 0.53125,-3.125 0.21093,-1.03515 0.45312,-2.0664 0.73047,-3.08593 0.27343,-1.02344 0.57812,-2.03516 0.91406,-3.03516 0.33984,-1.00391 0.70703,-1.99219 1.10547,-2.97266 0.39843,-0.98047 0.82812,-1.94531 1.28515,-2.89843 0.46094,-0.95313 0.94922,-1.89063 1.46485,-2.81641 0.51562,-0.92188 1.0625,-1.82813 1.63672,-2.71484 0.57031,-0.89063 1.17187,-1.76172 1.80078,-2.61329 0.625,-0.85156 1.27734,-1.68359 1.95703,-2.49218 0.67969,-0.8125 1.38281,-1.60157 2.10937,-2.3711 0.73047,-0.76562 1.48047,-1.51172 2.25391,-2.23047 0.77344,-0.72265 1.57031,-1.41796 2.38672,-2.08984 0.8164,-0.67187 1.65625,-1.32031 2.51172,-1.9375 0.85937,-0.62109 1.73437,-1.21484 2.6289,-1.78125 0.89453,-0.5625 1.80469,-1.10156 2.73438,-1.60937 0.92578,-0.51172 1.86719,-0.99219 2.82422,-1.44141 0.95703,-0.44922 1.92968,-0.87109 2.91406,-1.26172 0.98047,-0.39062 1.97656,-0.75 2.98437,-1.07812 1.00391,-0.33204 2.01954,-0.62891 3.04297,-0.89454 1.02344,-0.26562 2.0586,-0.5 3.09375,-0.70312 1.03907,-0.19922 2.08594,-0.37109 3.13282,-0.50781 1.05078,-0.13672 2.10546,-0.24219 3.16015,-0.3125 1.05469,-0.0742 2.11328,-0.11328 3.17188,-0.1211 1.05859,-0.004 2.11328,0.0195 3.17187,0.0781 1.05469,0.0586 2.10938,0.15234 3.16016,0.27734 1.05078,0.1211 2.09765,0.28125 3.14062,0.46875 1.03907,0.1875 2.07422,0.41016 3.10157,0.66406 z m 0,0"
                    fill-opacity="0.78"
                    fill-rule="evenodd"
                    id="path45" />
            </g>
        </g>
        <g
            clip-path="url(#1e54e92698)"
            id="g49"
            transform="matrix(0.26458333,0,0,0.26458333,-52.823362,-82.360455)">
            <g
                clip-path="url(#0aac0899a6)"
                id="g48">
                <path
                    fill="#12bcbc"
                    d="m 237.85156,469.11328 c 0.64844,0 1.29688,-0.0312 1.94531,-0.0937 0.64454,-0.0625 1.28907,-0.16016 1.92579,-0.28516 0.63671,-0.1289 1.26562,-0.28515 1.89062,-0.47265 0.62109,-0.1875 1.23438,-0.40625 1.83203,-0.65625 0.60156,-0.2461 1.1875,-0.52344 1.76172,-0.83203 0.57422,-0.30469 1.13281,-0.63672 1.67188,-1 0.54296,-0.35938 1.0625,-0.7461 1.5664,-1.15625 0.5,-0.41407 0.98438,-0.84766 1.44141,-1.3086 0.46094,-0.45703 0.89844,-0.9375 1.30859,-1.4414 0.41406,-0.5 0.80078,-1.02344 1.16406,-1.5625 0.35938,-0.53907 0.69532,-1.09766 1,-1.66797 0.3086,-0.57422 0.58594,-1.16016 0.83204,-1.76172 0.25,-0.59766 0.46875,-1.21094 0.65625,-1.83203 0.1914,-0.6211 0.34765,-1.25 0.47656,-1.88672 0.125,-0.63672 0.22265,-1.27734 0.28515,-1.92578 0.0625,-0.64453 0.0977,-1.29297 0.0977,-1.94531 0,-0.64844 -0.0352,-1.29688 -0.0977,-1.94141 -0.0625,-0.64844 -0.16015,-1.28906 -0.28515,-1.92578 -0.125,-0.63672 -0.28516,-1.26563 -0.47266,-1.89063 -0.1875,-0.62109 -0.40625,-1.23047 -0.65625,-1.83203 -0.25,-0.59765 -0.52734,-1.18359 -0.83203,-1.75781 -0.30859,-0.57422 -0.64062,-1.12891 -1.00391,-1.67188 -0.35937,-0.53906 -0.74609,-1.05859 -1.16015,-1.5625 -0.41016,-0.5 -0.84766,-0.98046 -1.3086,-1.4414 -0.45703,-0.46094 -0.9375,-0.89453 -1.4414,-1.3086 -0.50391,-0.41015 -1.02344,-0.79687 -1.56641,-1.15625 -0.53906,-0.36328 -1.09765,-0.69531 -1.66797,-1 -0.57422,-0.30859 -1.16015,-0.58593 -1.76172,-0.83203 -0.60156,-0.25 -1.21484,-0.46875 -1.83593,-0.65625 -0.6211,-0.1914 -1.25,-0.34765 -1.89063,-0.47265 -0.63672,-0.12891 -1.27734,-0.22266 -1.92578,-0.28516 -0.64844,-0.0664 -1.29687,-0.0977 -1.94531,-0.0977 -0.64844,0 -1.29688,0.0312 -1.94531,0.0977 -0.64844,0.0625 -1.28907,0.15625 -1.92579,0.28516 -0.64062,0.125 -1.26953,0.28515 -1.89062,0.47265 -0.62109,0.1875 -1.23438,0.40625 -1.83594,0.65625 -0.59765,0.25 -1.1875,0.52735 -1.75781,0.83203 -0.57422,0.3086 -1.13281,0.64063 -1.67188,1 -0.53906,0.36329 -1.0625,0.75 -1.5664,1.16016 -0.5,0.41406 -0.98047,0.84766 -1.44141,1.30859 -0.46094,0.46094 -0.89453,0.94141 -1.30859,1.44141 -0.41016,0.50391 -0.79688,1.02344 -1.16016,1.56641 -0.35937,0.53906 -0.69531,1.09375 -1,1.66797 -0.30469,0.57421 -0.58203,1.16015 -0.83203,1.76171 -0.25,0.59766 -0.46875,1.21094 -0.65625,1.83204 -0.1875,0.62109 -0.34375,1.25 -0.47266,1.88671 -0.125,0.63672 -0.22265,1.28125 -0.28515,1.92579 -0.0625,0.64843 -0.0937,1.29687 -0.0937,1.94531 0,0.64844 0.0352,1.29687 0.0977,1.9414 0.0664,0.64454 0.16407,1.28516 0.28907,1.92188 0.1289,0.63672 0.28906,1.26562 0.47656,1.88672 0.19141,0.61719 0.41016,1.23047 0.65625,1.82812 0.25,0.59766 0.52734,1.1836 0.83594,1.75782 0.30468,0.57031 0.64062,1.125 1,1.66406 0.36328,0.53906 0.75,1.0625 1.16015,1.5625 0.41407,0.5 0.84766,0.98047 1.3086,1.4414 0.45703,0.45704 0.9375,0.89063 1.4414,1.30469 0.5,0.41016 1.01953,0.79688 1.5625,1.16016 0.53907,0.35937 1.09375,0.6914 1.66797,1 0.57031,0.30469 1.15625,0.58203 1.75781,0.83203 0.59766,0.25 1.21094,0.46875 1.83204,0.65625 0.62109,0.1875 1.25,0.34766 1.88671,0.47656 0.63672,0.125 1.27735,0.22266 1.92188,0.28906 0.64453,0.0625 1.29297,0.0977 1.94531,0.0977 z m 0,0"
                    fill-opacity="0.78"
                    fill-rule="evenodd"
                    id="path47" />
            </g>
        </g>
        <g
            clip-path="url(#66bfc4b2ec)"
            id="g51"
            transform="matrix(0.26458333,0,0,0.26458333,-52.823362,-82.360455)">
            <g
                clip-path="url(#113dcec9dc)"
                id="g50">
                <path
                    fill="#00b9f1"
                    d="m 279.41797,496.71484 c 0.59375,0.004 1.18359,-0.0234 1.77344,-0.082 0.59375,-0.0547 1.17968,-0.14062 1.76171,-0.2539 0.58204,-0.11719 1.15625,-0.25782 1.72266,-0.42969 0.57031,-0.16797 1.12891,-0.36719 1.67578,-0.59375 0.55078,-0.22266 1.08594,-0.47656 1.60938,-0.75391 0.52343,-0.27734 1.03515,-0.58203 1.52734,-0.91015 0.49219,-0.32813 0.97266,-0.67969 1.42969,-1.05469 0.46094,-0.375 0.89844,-0.76953 1.32031,-1.1875 0.42188,-0.41797 0.82031,-0.85547 1.19531,-1.3125 0.37891,-0.45703 0.73438,-0.9336 1.0625,-1.42578 0.33203,-0.49219 0.63672,-1 0.91797,-1.51953 0.28125,-0.52344 0.53516,-1.0586 0.76563,-1.60547 0.22656,-0.54688 0.42578,-1.10547 0.60156,-1.67188 0.17187,-0.5664 0.31641,-1.14062 0.43359,-1.72265 0.11719,-0.57813 0.20703,-1.16407 0.26563,-1.75391 0.0586,-0.58984 0.0898,-1.17969 0.0898,-1.77344 0,-0.59375 -0.0273,-1.18359 -0.082,-1.77344 -0.0586,-0.58984 -0.14453,-1.17578 -0.25781,-1.75781 -0.11719,-0.58203 -0.25781,-1.15625 -0.42969,-1.72265 -0.17187,-0.57032 -0.37109,-1.125 -0.59766,-1.67579 -0.22656,-0.54687 -0.47656,-1.08203 -0.75781,-1.60546 -0.27734,-0.52344 -0.58203,-1.03125 -0.91015,-1.52344 -0.32813,-0.4961 -0.67969,-0.97266 -1.05469,-1.42969 -0.37891,-0.45703 -0.77344,-0.89844 -1.19141,-1.31641 -0.42187,-0.42187 -0.85937,-0.82031 -1.3164,-1.19531 -0.45704,-0.3789 -0.9336,-0.73047 -1.42579,-1.05859 -0.49609,-0.33203 -1.0039,-0.63672 -1.52343,-0.91797 -0.52344,-0.27734 -1.0586,-0.53125 -1.60547,-0.76172 -0.55078,-0.22656 -1.10547,-0.42578 -1.67578,-0.59766 -0.56641,-0.17187 -1.14063,-0.3164 -1.72266,-0.43359 -0.58203,-0.11719 -1.16797,-0.20312 -1.75781,-0.26172 -0.58985,-0.0586 -1.1836,-0.0898 -1.77735,-0.0898 -0.58984,0 -1.18359,0.0273 -1.77343,0.0859 -0.58985,0.0586 -1.17578,0.14453 -1.75782,0.25781 -0.58203,0.11719 -1.15625,0.25781 -1.72656,0.42969 -0.5664,0.17187 -1.125,0.37109 -1.67187,0.59765 -0.55078,0.22656 -1.08594,0.48047 -1.60938,0.75781 -0.52344,0.28125 -1.03125,0.58204 -1.52344,0.91407 -0.49609,0.32812 -0.96875,0.67968 -1.42968,1.05468 -0.45703,0.37891 -0.89844,0.77344 -1.31641,1.19141 -0.42187,0.42188 -0.82031,0.85938 -1.19531,1.31641 -0.375,0.45703 -0.73047,0.93359 -1.0586,1.42578 -0.33203,0.49219 -0.63671,1 -0.91406,1.52344 -0.28125,0.52343 -0.53515,1.05859 -0.76172,1.60546 -0.22656,0.54688 -0.42578,1.10547 -0.59765,1.67188 -0.17188,0.56641 -0.31641,1.14062 -0.4336,1.72266 -0.11718,0.58203 -0.20312,1.16796 -0.26172,1.75781 -0.0586,0.58984 -0.0859,1.17969 -0.0859,1.77344 0,0.58984 0.0312,1.17968 0.0898,1.76953 0.0586,0.58593 0.14453,1.17187 0.26172,1.75 0.11719,0.57812 0.26172,1.15234 0.43359,1.71875 0.17188,0.5625 0.3711,1.12109 0.59766,1.66406 0.22656,0.54687 0.47656,1.08203 0.75781,1.60156 0.27735,0.52344 0.58203,1.02735 0.91016,1.51953 0.32812,0.49219 0.67969,0.96485 1.05469,1.42188 0.375,0.46094 0.76953,0.89844 1.1875,1.3164 0.41796,0.41797 0.85546,0.81641 1.3125,1.19141 0.45703,0.375 0.92968,0.72656 1.42187,1.05859 0.48828,0.32813 0.99609,0.63282 1.51563,0.91407 0.52343,0.27734 1.05468,0.53125 1.60156,0.76172 0.54687,0.22656 1.10156,0.42578 1.66797,0.60156 0.5625,0.17187 1.13672,0.3164 1.71484,0.43359 0.58203,0.1211 1.16406,0.20703 1.75391,0.26953 0.58593,0.0586 1.17578,0.0899 1.76953,0.0937 z m 0,0"
                    fill-opacity="0.78"
                    fill-rule="evenodd"
                    id="path49" />
            </g>
        </g>
        <g
            clip-path="url(#592212ee8f)"
            id="g53"
            transform="matrix(0.26458333,0,0,0.26458333,-52.823362,-82.360455)">
            <g
                clip-path="url(#a063a62a40)"
                id="g52">
                <path
                    fill="#8dc63f"
                    d="m 234.99609,420.85937 c 0.91407,0 1.81641,-0.0898 2.71485,-0.26953 0.89453,-0.17578 1.76562,-0.4414 2.60937,-0.78906 0.84375,-0.35156 1.64453,-0.77734 2.40235,-1.28516 0.76171,-0.50781 1.46093,-1.08203 2.10937,-1.73046 0.64453,-0.64454 1.22266,-1.34766 1.73047,-2.10547 0.50391,-0.75782 0.93359,-1.5586 1.28125,-2.40235 0.35156,-0.84375 0.61328,-1.71093 0.79297,-2.60547 0.17969,-0.89453 0.26562,-1.80078 0.26562,-2.71093 0,-0.91407 -0.0898,-1.81641 -0.26562,-2.71094 -0.17969,-0.89844 -0.44531,-1.76563 -0.79297,-2.60938 -0.35156,-0.84375 -0.77734,-1.64453 -1.28516,-2.40234 -0.50781,-0.75781 -1.08593,-1.46094 -1.73047,-2.10547 -0.64843,-0.64453 -1.35156,-1.21875 -2.10937,-1.72656 -0.75781,-0.50781 -1.5625,-0.93359 -2.40625,-1.28516 -0.84375,-0.34765 -1.71094,-0.60937 -2.60938,-0.78906 -0.89453,-0.17578 -1.80078,-0.26562 -2.71093,-0.26562 -0.91407,0 -1.82032,0.0898 -2.71485,0.26953 -0.89453,0.17578 -1.76562,0.4414 -2.60937,0.78906 -0.84375,0.35156 -1.64453,0.78125 -2.40235,1.28906 -0.76171,0.50391 -1.46484,1.08203 -2.10937,1.72656 -0.64453,0.64844 -1.22266,1.34766 -1.72656,2.10938 -0.50782,0.75781 -0.9375,1.55859 -1.28516,2.40234 -0.34766,0.84375 -0.61328,1.71094 -0.78906,2.60547 -0.17969,0.89844 -0.26563,1.80078 -0.26563,2.71485 0,0.91015 0.0898,1.8125 0.26953,2.70703 0.17969,0.89453 0.44532,1.76172 0.79688,2.60156 0.34766,0.84375 0.77734,1.64453 1.28516,2.40234 0.50781,0.75782 1.08203,1.45703 1.73046,2.10157 0.64454,0.64453 1.34766,1.21875 2.10547,1.72656 0.75782,0.50781 1.5586,0.93359 2.40235,1.28515 0.83984,0.34766 1.71093,0.61329 2.60547,0.78907 0.89453,0.17968 1.79687,0.26953 2.71093,0.27343 z m 0,0"
                    fill-opacity="0.78"
                    fill-rule="evenodd"
                    id="path51" />
            </g>
        </g>
        <g
            clip-path="url(#f369a12f22)"
            id="g55"
            transform="matrix(0.26458333,0,0,0.26458333,-52.823362,-82.360455)">
            <g
                clip-path="url(#50ced8424d)"
                id="g54">
                <path
                    fill="#ffd900"
                    d="m 228.05859,372.4375 c 0,0.78906 -0.0742,1.57422 -0.23047,2.34766 -0.15234,0.77343 -0.38281,1.52734 -0.68359,2.25781 -0.30469,0.73047 -0.67578,1.42187 -1.11328,2.07812 -0.44141,0.66016 -0.94141,1.26563 -1.5,1.82422 -0.55859,0.5586 -1.16797,1.0586 -1.82422,1.4961 -0.65625,0.4414 -1.35156,0.8125 -2.08203,1.11328 -0.73047,0.30078 -1.48438,0.53125 -2.25781,0.68359 -0.77735,0.15625 -1.5586,0.23047 -2.35157,0.23047 -0.78906,0 -1.57031,-0.0742 -2.34765,-0.23047 -0.77735,-0.15234 -1.52735,-0.38281 -2.25781,-0.68359 -0.73047,-0.30078 -1.42579,-0.67188 -2.08204,-1.11328 -0.66015,-0.4375 -1.26562,-0.9375 -1.82421,-1.4961 -0.5625,-0.55859 -1.0586,-1.16406 -1.5,-1.82422 -0.4375,-0.65625 -0.8086,-1.34765 -1.11329,-2.07812 -0.30078,-0.73047 -0.53125,-1.48438 -0.68359,-2.25781 -0.15625,-0.77344 -0.23047,-1.5586 -0.23047,-2.34766 0,-0.78906 0.0742,-1.57031 0.23047,-2.34766 0.15234,-0.77343 0.38281,-1.52734 0.68359,-2.2539 0.30469,-0.73047 0.67579,-1.42578 1.11329,-2.08203 0.4414,-0.65625 0.9375,-1.26563 1.5,-1.82422 0.55859,-0.5586 1.16406,-1.05469 1.82421,-1.4961 0.65625,-0.4375 1.35157,-0.80859 2.08204,-1.10937 0.73046,-0.30469 1.48046,-0.53125 2.25781,-0.6875 0.77734,-0.15235 1.55859,-0.23047 2.34765,-0.23047 0.79297,0 1.57422,0.0781 2.35157,0.23047 0.77343,0.15625 1.52734,0.38281 2.25781,0.6875 0.73047,0.30078 1.42578,0.67187 2.08203,1.10937 0.65625,0.44141 1.26563,0.9375 1.82422,1.4961 0.55859,0.55859 1.05859,1.16797 1.5,1.82422 0.4375,0.65625 0.80859,1.35156 1.11328,2.08203 0.30078,0.72656 0.53125,1.48047 0.68359,2.2539 0.15625,0.77735 0.23047,1.5586 0.23047,2.34766 z m 0,0"
                    fill-opacity="0.78"
                    fill-rule="nonzero"
                    id="path53" />
            </g>
        </g>
        <g
            clip-path="url(#4848d2e8e4)"
            id="g57"
            transform="matrix(0.26458333,0,0,0.26458333,-52.823362,-82.360455)">
            <g
                clip-path="url(#664cc76023)"
                id="g56">
                <path
                    fill="#009444"
                    d="m 241.46094,350.39453 c 0.73828,0 1.46875,-0.0742 2.1914,-0.21484 0.72657,-0.14453 1.42969,-0.35547 2.10938,-0.64063 0.68359,-0.28125 1.33203,-0.625 1.94531,-1.03515 0.61719,-0.41016 1.18359,-0.875 1.70703,-1.39454 0.52344,-0.52343 0.98828,-1.08984 1.39844,-1.70312 0.41016,-0.61328 0.75781,-1.26172 1.03906,-1.94141 0.28516,-0.67968 0.5,-1.38281 0.64063,-2.10937 0.14453,-0.72266 0.21875,-1.45313 0.21875,-2.19141 0,-0.73437 -0.0703,-1.46484 -0.21485,-2.1914 -0.14453,-0.72266 -0.35547,-1.42579 -0.64062,-2.10547 -0.28125,-0.6836 -0.625,-1.33203 -1.03516,-1.94532 -0.41015,-0.61328 -0.8789,-1.17968 -1.39844,-1.70312 -0.52343,-0.51953 -1.08984,-0.98828 -1.70312,-1.39844 -0.61328,-0.40625 -1.26172,-0.7539 -1.94531,-1.03515 -0.67969,-0.28516 -1.38282,-0.4961 -2.10938,-0.64063 -0.72265,-0.14453 -1.45312,-0.21875 -2.1914,-0.21875 -0.73829,0 -1.47266,0.0742 -2.19532,0.21484 -0.72265,0.14454 -1.42578,0.35938 -2.10937,0.64063 -0.6836,0.28125 -1.33203,0.62891 -1.94531,1.03906 -0.61329,0.41016 -1.17969,0.875 -1.70313,1.39453 -0.52344,0.52344 -0.98828,1.08985 -1.39844,1.70313 -0.41015,0.61328 -0.75781,1.26172 -1.03906,1.9414 -0.28125,0.6836 -0.49609,1.38672 -0.64062,2.10938 -0.14454,0.72266 -0.21485,1.45312 -0.21485,2.19141 0,0.73828 0.0742,1.46484 0.21875,2.1875 0.14453,0.72265 0.35547,1.42578 0.64063,2.10546 0.28125,0.67969 0.6289,1.32813 1.03906,1.94141 0.41016,0.61328 0.875,1.17969 1.39453,1.69922 0.52344,0.52344 1.08984,0.98828 1.70313,1.39844 0.61328,0.41015 1.25781,0.7539 1.9414,1.03906 0.67969,0.28125 1.38281,0.49609 2.10547,0.64062 0.72266,0.14454 1.45313,0.21875 2.19141,0.22266 z m 0,0"
                    fill-opacity="0.78"
                    fill-rule="evenodd"
                    id="path55" />
            </g>
        </g>
        <g
            clip-path="url(#1d53751798)"
            id="g59"
            transform="matrix(0.26458333,0,0,0.26458333,-52.823362,-82.360455)">
            <g
                clip-path="url(#1989d77036)"
                id="g58">
                <path
                    fill="#56ba48"
                    d="m 245.27734,378.39062 c 0.48828,0 0.96875,-0.0469 1.44922,-0.14453 0.47656,-0.0937 0.94141,-0.23437 1.39063,-0.42187 0.45312,-0.1875 0.8789,-0.41406 1.28515,-0.6836 0.40625,-0.27343 0.78125,-0.57812 1.125,-0.92578 0.34375,-0.34375 0.65235,-0.71875 0.92188,-1.12109 0.27344,-0.40625 0.5,-0.83594 0.6875,-1.28516 0.1875,-0.44922 0.32812,-0.91406 0.42187,-1.39062 0.0977,-0.47656 0.14453,-0.96094 0.14453,-1.44922 0,-0.48438 -0.0469,-0.96875 -0.14453,-1.44531 -0.0937,-0.48047 -0.23437,-0.94141 -0.42187,-1.39453 -0.1875,-0.44922 -0.41406,-0.875 -0.6875,-1.28125 -0.26953,-0.40625 -0.57813,-0.78125 -0.92188,-1.125 -0.34375,-0.34375 -0.71875,-0.65235 -1.125,-0.92188 -0.40625,-0.26953 -0.83203,-0.5 -1.28515,-0.6875 -0.44922,-0.18359 -0.91407,-0.32422 -1.39063,-0.42187 -0.48047,-0.0937 -0.96094,-0.14063 -1.44922,-0.14063 -0.48828,0 -0.97265,0.0469 -1.44922,0.14063 -0.48046,0.0976 -0.94531,0.23828 -1.39453,0.42187 -0.44922,0.1875 -0.8789,0.41797 -1.28515,0.6875 -0.40235,0.26953 -0.77735,0.57813 -1.125,0.92188 -0.34375,0.34375 -0.65235,0.71875 -0.92188,1.125 -0.26953,0.40625 -0.5,0.83203 -0.6875,1.28125 -0.1875,0.45312 -0.32812,0.91406 -0.42187,1.39453 -0.0937,0.47656 -0.14063,0.96093 -0.14063,1.44531 0,0.48828 0.0469,0.96875 0.14453,1.44922 0.0937,0.47656 0.23828,0.9375 0.42188,1.39062 0.1875,0.44922 0.41797,0.875 0.6875,1.28125 0.27344,0.40235 0.57812,0.77735 0.92578,1.1211 0.34375,0.34375 0.71875,0.65234 1.125,0.92187 0.40234,0.27344 0.83203,0.5 1.28125,0.6875 0.44922,0.1875 0.91406,0.32813 1.39062,0.42578 0.47657,0.0937 0.96094,0.14453 1.44922,0.14453 z m 0,0"
                    fill-opacity="0.78"
                    fill-rule="evenodd"
                    id="path57" />
            </g>
        </g>
        <g
            clip-path="url(#3c03e65346)"
            id="g61"
            transform="matrix(0.26458333,0,0,0.26458333,-52.823362,-82.360455)">
            <g
                clip-path="url(#61fccc2c4e)"
                id="g60">
                <path
                    fill="#fbad17"
                    d="m 260.76562,331.20703 c 0.48829,0 0.96875,-0.0469 1.44922,-0.14062 0.47657,-0.0977 0.94141,-0.23829 1.39063,-0.42188 0.45312,-0.1875 0.8789,-0.41797 1.28515,-0.6875 0.40625,-0.26953 0.78125,-0.57812 1.125,-0.92187 0.34375,-0.34375 0.65235,-0.71875 0.92579,-1.125 0.26953,-0.40625 0.5,-0.83204 0.68359,-1.28125 0.1875,-0.45313 0.32812,-0.91407 0.42578,-1.39454 0.0937,-0.47656 0.14063,-0.96093 0.14063,-1.44531 0,-0.48828 -0.0469,-0.97265 -0.14063,-1.44922 -0.0977,-0.47656 -0.23828,-0.9414 -0.42578,-1.39062 -0.18359,-0.45313 -0.41406,-0.87891 -0.68359,-1.28516 -0.27344,-0.40234 -0.58204,-0.77734 -0.92579,-1.125 -0.34375,-0.34375 -0.71875,-0.65234 -1.125,-0.92187 -0.40625,-0.26953 -0.83203,-0.5 -1.28515,-0.6836 -0.44922,-0.1875 -0.91406,-0.32812 -1.39063,-0.42187 -0.48047,-0.0977 -0.96093,-0.14453 -1.44922,-0.14453 -0.48828,0 -0.97265,0.0469 -1.44921,0.14453 -0.47657,0.0937 -0.94141,0.23437 -1.39454,0.42187 -0.44921,0.1836 -0.8789,0.41407 -1.28125,0.6836 -0.40625,0.26953 -0.78125,0.57812 -1.125,0.92187 -0.34765,0.34766 -0.65625,0.72266 -0.92578,1.125 -0.26953,0.40625 -0.5,0.83203 -0.6875,1.28516 -0.18359,0.44922 -0.32422,0.91406 -0.42187,1.39062 -0.0937,0.47657 -0.14063,0.96094 -0.14063,1.44922 0,0.48438 0.0469,0.96875 0.14453,1.44531 0.0977,0.47657 0.23829,0.94141 0.42579,1.39063 0.18359,0.44922 0.41406,0.875 0.68359,1.28125 0.27344,0.40234 0.58203,0.77734 0.92578,1.12109 0.34375,0.34766 0.71875,0.65235 1.125,0.92578 0.40234,0.26954 0.83203,0.5 1.28125,0.6836 0.44922,0.1875 0.91406,0.32812 1.39063,0.42578 0.48046,0.0937 0.96093,0.14453 1.44921,0.14453 z m 0,0"
                    fill-opacity="0.78"
                    fill-rule="evenodd"
                    id="path59" />
            </g>
        </g>
        <g
            clip-path="url(#960f146a1a)"
            id="g63"
            transform="matrix(0.26458333,0,0,0.26458333,-52.823362,-82.360455)">
            <g
                clip-path="url(#30442d4a70)"
                id="g62">
                <path
                    fill="#f15c22"
                    d="m 215.14844,347.74609 c 0.37109,0 0.73437,-0.0391 1.09765,-0.10937 0.35938,-0.0742 0.71094,-0.1836 1.05078,-0.32422 0.33985,-0.14453 0.66407,-0.31641 0.96875,-0.52344 0.30469,-0.20703 0.58985,-0.4414 0.84766,-0.70312 0.26172,-0.25782 0.49219,-0.54297 0.69531,-0.85157 0.20313,-0.30468 0.375,-0.6289 0.51563,-0.97265 0.14062,-0.33985 0.24609,-0.69141 0.3164,-1.05078 0.0703,-0.36328 0.10547,-0.72657 0.10547,-1.09766 -0.004,-0.36719 -0.0391,-0.73047 -0.11328,-1.09375 -0.0703,-0.35937 -0.17969,-0.71094 -0.32031,-1.05078 -0.14453,-0.33984 -0.31641,-0.66406 -0.52344,-0.96875 -0.20312,-0.30469 -0.4375,-0.58984 -0.69922,-0.84766 -0.26172,-0.26172 -0.54687,-0.49218 -0.85156,-0.69922 -0.30859,-0.20312 -0.63281,-0.375 -0.97266,-0.51562 -0.34375,-0.14063 -0.6914,-0.24609 -1.05468,-0.31641 -0.36328,-0.0703 -0.72657,-0.10547 -1.09766,-0.10547 -0.36719,0 -0.73047,0.0352 -1.09375,0.10938 -0.36328,0.0703 -0.71094,0.17969 -1.05469,0.32031 -0.33984,0.14063 -0.66406,0.3125 -0.96875,0.51953 -0.30468,0.20313 -0.58984,0.4375 -0.85156,0.69922 -0.25781,0.25781 -0.49219,0.54297 -0.69531,0.85156 -0.20703,0.30469 -0.37891,0.62891 -0.51953,0.96875 -0.14063,0.33985 -0.2461,0.69141 -0.32032,1.05079 -0.0703,0.36328 -0.10546,0.72656 -0.10546,1.09765 0,0.36719 0.0352,0.73438 0.10937,1.09766 0.0742,0.35937 0.17969,0.71094 0.32422,1.05469 0.14062,0.33984 0.31641,0.66406 0.52344,0.96875 0.20703,0.30859 0.4414,0.59375 0.70312,0.85156 0.26172,0.26172 0.54688,0.49609 0.85547,0.69922 0.30469,0.20312 0.63281,0.3789 0.97266,0.51953 0.34375,0.14062 0.69531,0.24609 1.05859,0.3164 0.36328,0.0742 0.73047,0.10938 1.09766,0.10547 z m 0,0"
                    fill-opacity="0.78"
                    fill-rule="evenodd"
                    id="path61" />
            </g>
        </g>
        <g
            clip-path="url(#6f22633a35)"
            id="g65"
            transform="matrix(0.26458333,0,0,0.26458333,-52.823362,-82.360455)">
            <g
                clip-path="url(#b2061c012b)"
                id="g64">
                <path
                    fill="#fbad17"
                    d="m 348.77344,405.04687 c 0,1.53907 -0.0742,3.07032 -0.22657,4.60157 -0.14843,1.52734 -0.375,3.04687 -0.67578,4.55468 -0.30078,1.50782 -0.67187,2.9961 -1.12109,4.46875 -0.44531,1.46875 -0.96484,2.91407 -1.55078,4.33594 -0.58985,1.41797 -1.2461,2.8086 -1.97266,4.16406 -0.72265,1.35547 -1.51562,2.67188 -2.37109,3.94922 -0.85156,1.27735 -1.76953,2.51172 -2.7461,3.69922 -0.97265,1.1875 -2.00781,2.32813 -3.09375,3.41406 -1.08984,1.08594 -2.22656,2.11719 -3.41406,3.09375 -1.1914,0.97266 -2.42578,1.88672 -3.70312,2.74219 -1.28125,0.85547 -2.59766,1.64453 -3.95703,2.36719 -1.35547,0.72656 -2.74219,1.38281 -4.16407,1.96875 -1.42187,0.58984 -2.87109,1.10547 -4.33984,1.55469 -1.47266,0.44531 -2.96484,0.8164 -4.47266,1.11718 -1.50781,0.30079 -3.03125,0.52735 -4.5625,0.67579 -1.53125,0.15234 -3.0625,0.22656 -4.60156,0.22656 -1.53906,0 -3.07422,-0.0742 -4.60547,-0.22656 -1.53125,-0.14844 -3.05078,-0.375 -4.55859,-0.67579 -1.51172,-0.30078 -3,-0.67187 -4.47266,-1.11718 -1.47265,-0.44922 -2.91797,-0.96485 -4.33984,-1.55469 -1.42188,-0.58594 -2.8125,-1.24219 -4.16797,-1.96875 -1.35547,-0.72266 -2.67578,-1.51172 -3.95313,-2.36719 -1.28125,-0.85547 -2.51562,-1.76953 -3.70312,-2.74219 -1.19141,-0.97656 -2.32813,-2.00781 -3.41406,-3.09375 -1.08985,-1.08593 -2.1211,-2.22656 -3.09766,-3.41406 -0.97656,-1.1875 -1.89062,-2.42187 -2.74609,-3.69922 -0.85547,-1.27734 -1.64453,-2.59375 -2.3711,-3.94922 -0.72265,-1.35546 -1.38281,-2.74609 -1.96875,-4.16406 -0.58984,-1.42187 -1.10547,-2.86719 -1.55468,-4.33594 -0.44532,-1.47265 -0.82032,-2.96093 -1.1211,-4.46875 -0.29687,-1.50781 -0.52344,-3.02734 -0.67578,-4.55468 -0.14844,-1.53125 -0.22656,-3.0625 -0.22656,-4.60157 0,-1.53515 0.0781,-3.07031 0.22656,-4.60156 0.15234,-1.52734 0.37891,-3.04687 0.67578,-4.55469 0.30078,-1.50781 0.67578,-2.99609 1.1211,-4.46875 0.44921,-1.46875 0.96484,-2.91406 1.55468,-4.33593 0.58594,-1.41797 1.2461,-2.8086 1.96875,-4.16407 0.72657,-1.35546 1.51563,-2.67187 2.3711,-3.94921 0.85547,-1.27735 1.76953,-2.51172 2.74609,-3.69922 0.97656,-1.1875 2.00781,-2.32813 3.09766,-3.41407 1.08593,-1.08593 2.22265,-2.11718 3.41406,-3.09375 1.1875,-0.97265 2.42187,-1.88671 3.70312,-2.74218 1.27735,-0.85547 2.59766,-1.64453 3.95313,-2.36719 1.35547,-0.72656 2.74609,-1.38281 4.16797,-1.96875 1.42187,-0.58984 2.86719,-1.10547 4.33984,-1.55469 1.47266,-0.44531 2.96094,-0.8164 4.47266,-1.11719 1.50781,-0.30078 3.02734,-0.52343 4.55859,-0.67578 1.53125,-0.15234 3.06641,-0.22656 4.60547,-0.22656 1.53906,0 3.07031,0.0742 4.60156,0.22656 1.53125,0.15235 3.05469,0.375 4.5625,0.67578 1.50782,0.30079 3,0.67188 4.47266,1.11719 1.46875,0.44922 2.91797,0.96485 4.33984,1.55469 1.42188,0.58594 2.8086,1.24219 4.16407,1.96875 1.35937,0.72266 2.67578,1.51172 3.95703,2.36719 1.27734,0.85547 2.51172,1.76953 3.70312,2.74218 1.1875,0.97657 2.32422,2.00782 3.41406,3.09375 1.08594,1.08594 2.1211,2.22657 3.09375,3.41407 0.97657,1.1875 1.89454,2.42187 2.7461,3.69922 0.85547,1.27734 1.64844,2.59375 2.37109,3.94921 0.72656,1.35547 1.38281,2.7461 1.97266,4.16407 0.58594,1.42187 1.10547,2.86718 1.55078,4.33593 0.44922,1.47266 0.82031,2.96094 1.12109,4.46875 0.30078,1.50782 0.52735,3.02735 0.67578,4.55469 0.15235,1.53125 0.22657,3.06641 0.22657,4.60156 z m 0,0"
                    fill-opacity="0.78"
                    fill-rule="nonzero"
                    id="path63" />
            </g>
        </g>
        <g
            clip-path="url(#f158151e0e)"
            id="g67"
            transform="matrix(0.26458333,0,0,0.26458333,-52.823362,-82.360455)">
            <g
                clip-path="url(#28ac9c4fb5)"
                id="g66">
                <path
                    fill="#ec008b"
                    d="m 327.75,334.00781 c 22.51172,4.63672 41.37109,15.90625 52.49219,32.10938 -0.0977,0.6875 -0.21094,1.37109 -0.35157,2.04687 -0.13671,0.67969 -0.29687,1.35547 -0.47656,2.02344 -0.17969,0.66797 -0.3789,1.33203 -0.59765,1.98828 -0.22266,0.65625 -0.46094,1.30859 -0.72266,1.94922 -0.26172,0.64062 -0.54297,1.27344 -0.84375,1.89844 -0.30078,0.625 -0.61719,1.23828 -0.95703,1.84375 -0.33985,0.60547 -0.69531,1.19922 -1.07031,1.78125 -0.375,0.58203 -0.76954,1.15234 -1.17969,1.71093 -0.41016,0.5586 -0.83594,1.10547 -1.28125,1.63672 -0.44531,0.53125 -0.90625,1.04688 -1.38281,1.55078 -0.47657,0.50391 -0.96485,0.99219 -1.47266,1.46485 -0.50781,0.47265 -1.02734,0.92969 -1.5625,1.37109 -0.53516,0.44141 -1.08203,0.86328 -1.64453,1.26953 -0.5625,0.40625 -1.13672,0.79688 -1.72266,1.16797 -0.58203,0.3711 -1.17969,0.72266 -1.78906,1.0586 -0.60547,0.33593 -1.22266,0.64843 -1.84766,0.94531 -0.6289,0.29687 -1.26562,0.57422 -1.90625,0.82812 -0.64453,0.25782 -1.29687,0.4961 -1.95703,0.71094 -0.65625,0.21875 -1.32422,0.41406 -1.99219,0.58984 -0.67187,0.17188 -1.34765,0.32813 -2.02734,0.46094 -0.67969,0.13281 -1.36328,0.2461 -2.05078,0.33594 -0.6875,0.0937 -1.37891,0.16406 -2.07031,0.21094 -0.69141,0.0469 -1.38282,0.0742 -2.07813,0.082 -0.6914,0.004 -1.38672,-0.0117 -2.07812,-0.0469 -0.69141,-0.0391 -1.38282,-0.0976 -2.07032,-0.17578 -0.6914,-0.082 -1.375,-0.18359 -2.05859,-0.30469 -0.68359,-0.125 -1.35937,-0.26562 -2.03516,-0.42968 -0.67187,-0.16797 -1.33984,-0.35157 -2,-0.5586 -0.66406,-0.20312 -1.32031,-0.42968 -1.96484,-0.67578 -0.64844,-0.24609 -1.28906,-0.51172 -1.92187,-0.80078 -0.63282,-0.28516 -1.25391,-0.58984 -1.86719,-0.91406 -0.60938,-0.32422 -1.21485,-0.66797 -1.80469,-1.03125 -0.58984,-0.35938 -1.17187,-0.73828 -1.73828,-1.13672 -0.56641,-0.39844 -1.125,-0.8125 -1.66406,-1.24609 -0.54297,-0.42969 -1.07032,-0.87891 -1.58594,-1.34375 -0.51563,-0.46485 -1.01172,-0.94532 -1.49609,-1.44141 -0.48829,-0.49609 -0.95704,-1.00391 -1.40625,-1.53125 -0.45313,-0.52344 -0.89063,-1.0625 -1.3086,-1.61328 -0.42187,-0.55078 -0.82422,-1.11328 -1.20703,-1.69141 -0.38672,-0.57812 -0.75,-1.16406 -1.10156,-1.76172 -0.34766,-0.60156 -0.67578,-1.21093 -0.98438,-1.82812 -0.3125,-0.6211 -0.60156,-1.25 -0.875,-1.88672 -0.26953,-0.63672 -0.51953,-1.28516 -0.7539,-1.9375 -0.23047,-0.65234 -0.44141,-1.3125 -0.63282,-1.97656 -0.1875,-0.66797 -0.35937,-1.33985 -0.50781,-2.01563 -0.14844,-0.67578 -0.27734,-1.35937 -0.38281,-2.04297 -0.10547,-0.68359 -0.19141,-1.37109 -0.25391,-2.0625 -0.0664,-0.6875 -0.10937,-1.3789 -0.1289,-2.07031 -0.0195,-0.69531 -0.0195,-1.38672 0,-2.07812 0.0234,-0.69141 0.0664,-1.38282 0.13281,-2.07422 0.0625,-0.69141 0.14844,-1.375 0.25781,-2.0625 0.10547,-0.6836 0.23438,-1.36328 0.38281,-2.03907 0.15235,-0.67578 0.32032,-1.34765 0.51172,-2.01562 0.19141,-0.66406 0.40235,-1.32422 0.63672,-1.97656 0.23047,-0.65235 0.48047,-1.29688 0.75391,-1.9375 0.27344,-0.63672 0.5625,-1.26172 0.875,-1.88282 0.3125,-0.62109 0.64062,-1.22656 0.98828,-1.82812 0.35156,-0.59766 0.71875,-1.18359 1.10156,-1.76172 0.38672,-0.57422 0.78906,-1.14062 1.20703,-1.69141 0.42188,-0.55078 0.85938,-1.08593 1.3125,-1.61328 0.45313,-0.52343 0.92188,-1.03125 1.40625,-1.52734 0.48438,-0.49609 0.98438,-0.97266 1.5,-1.4375 0.51563,-0.46484 1.04297,-0.91406 1.58594,-1.34375 0.54297,-0.43359 1.09766,-0.84766 1.66797,-1.24219 z m 0,0"
                    fill-opacity="0.78"
                    fill-rule="evenodd"
                    id="path65" />
            </g>
        </g>
        <path
            fill="#56ba48"
            d="m 22.843338,19.366671 c 0.24391,0 0.48679,-0.0124 0.72967,-0.0362 0.24288,-0.0238 0.48369,-0.0589 0.72244,-0.10645 0.23978,-0.0475 0.47542,-0.10645 0.709,-0.17777 0.23358,-0.0703 0.46198,-0.15193 0.68729,-0.24494 0.22531,-0.094 0.44545,-0.19741 0.66043,-0.31213 0.21497,-0.11472 0.42478,-0.23978 0.62735,-0.37517 0.20257,-0.13539 0.39791,-0.28009 0.58704,-0.43512 0.18811,-0.15399 0.36897,-0.31729 0.54054,-0.48989 0.1726,-0.17156 0.33693,-0.35243 0.49092,-0.54053 0.15503,-0.18811 0.29973,-0.38344 0.43512,-0.58601 0.13643,-0.20258 0.26148,-0.41135 0.37621,-0.62632 0.11472,-0.21394 0.2191,-0.43409 0.31212,-0.65939 0.094,-0.22531 0.1757,-0.45372 0.24701,-0.6873 0.0703,-0.23254 0.12919,-0.46922 0.17674,-0.70797 0.0486,-0.238743 0.0837,-0.479556 0.10748,-0.721401 0.0248,-0.24288 0.0362,-0.485759 0.0362,-0.729671 0,-0.242879 -0.0114,-0.486791 -0.0351,-0.728638 -0.0238,-0.24288 -0.06,-0.483691 -0.10749,-0.722437 -0.0475,-0.238744 -0.10645,-0.474388 -0.17777,-0.7079673 -0.0703,-0.232542 -0.15193,-0.461986 -0.24598,-0.687295 -0.093,-0.224277 -0.19636,-0.444418 -0.31212,-0.659392 -0.11472,-0.214974 -0.23978,-0.423746 -0.37517,-0.626319 -0.13539,-0.20257 -0.28009,-0.397907 -0.43512,-0.58601 -0.15503,-0.188103 -0.31832,-0.368969 -0.48989,-0.54157 -0.1726,-0.171564 -0.35347,-0.334862 -0.54157,-0.489892 -0.1881,-0.153995 -0.38447,-0.299723 -0.58704,-0.435115 -0.20258,-0.135393 -0.41135,-0.260451 -0.62632,-0.375171 -0.21498,-0.114721 -0.43512,-0.219107 -0.66043,-0.312127 -0.2253,-0.09302 -0.45475,-0.174664 -0.68729,-0.245977 -0.23358,-0.07028 -0.47026,-0.130226 -0.709,-0.177769 -0.23875,-0.04754 -0.47956,-0.08268 -0.72244,-0.106452 -0.24288,-0.02379 -0.48576,-0.03617 -0.72967,-0.03617 -0.24391,0 -0.48679,0.01241 -0.72967,0.03617 -0.24288,0.02376 -0.48369,0.05891 -0.72244,0.106452 -0.23978,0.04754 -0.47542,0.106453 -0.709,0.177769 -0.23358,0.07028 -0.46199,0.151926 -0.6873,0.245977 -0.2253,0.09302 -0.44545,0.196371 -0.66042,0.311092 -0.21498,0.115755 -0.42478,0.240813 -0.62735,0.375171 -0.20257,0.135393 -0.39791,0.28112 -0.58601,0.435116 -0.18914,0.15503 -0.36897,0.318328 -0.54157,0.489894 -0.1726,0.172598 -0.3359,0.352433 -0.49093,0.541568 -0.15503,0.188103 -0.29972,0.383439 -0.43511,0.586012 -0.1354,0.202571 -0.26045,0.411343 -0.37518,0.626317 -0.11575,0.213942 -0.2191,0.434083 -0.31315,0.659392 -0.093,0.225308 -0.17467,0.453718 -0.24598,0.687297 -0.0703,0.2325423 -0.1292,0.4692203 -0.17674,0.7079673 -0.0475,0.238744 -0.0837,0.479557 -0.10749,0.721402 -0.0237,0.24288 -0.0362,0.485759 -0.0362,0.729671 10e-4,0.242879 0.0134,0.485759 0.0372,0.728638 0.0238,0.241845 0.0599,0.482659 0.10852,0.720368 0.0475,0.23875 0.10645,0.47439 0.17777,0.70797 0.0713,0.23254 0.15296,0.46095 0.24701,0.68626 0.093,0.22428 0.1974,0.44442 0.31212,0.65939 0.11473,0.21394 0.23978,0.42272 0.37518,0.62529 0.13642,0.20257 0.28112,0.39687 0.43511,0.58497 0.15503,0.18811 0.31833,0.36897 0.49093,0.54054 0.17156,0.1726 0.35243,0.3359 0.54053,0.48989 0.18811,0.15503 0.38344,0.29973 0.58601,0.43512 0.20258,0.13539 0.41135,0.26045 0.62529,0.37517 0.21497,0.11575 0.43512,0.21911 0.66042,0.31316 0.22428,0.093 0.45372,0.1757 0.68627,0.24598 0.23357,0.0713 0.46922,0.13022 0.70796,0.1788 0.23875,0.0475 0.47956,0.0837 0.72244,0.10852 0.24185,0.0238 0.48473,0.0362 0.72864,0.0372 z m 0,0"
            fill-opacity="0.78"
            fill-rule="evenodd"
            id="path67"
            style="stroke-width:0.264583" />
    </g>
</svg>